HIERARCHY
ROOT SpineBase
{
  OFFSET 0.000000 0.000000 0.000000
  CHANNELS 6 Xposition Yposition Zposition Zrotation Xrotation Yrotation
  JOINT SpineMid
  {
    OFFSET -0.000000 32.996795 0.000000
    CHANNELS 3 Zrotation Xrotation Yrotation
    JOINT SpineShoulder
    {
      OFFSET -0.136607 24.427076 -0.753533
      CHANNELS 3 Zrotation Xrotation Yrotation
      JOINT Neck
      {
        OFFSET -0.091674 8.057157 -0.581506
        CHANNELS 3 Zrotation Xrotation Yrotation
        JOINT Head
        {
          OFFSET -5.194330 12.179916 5.108298
          CHANNELS 3 Zrotation Xrotation Yrotation
          End Site
          {
            OFFSET 0 0 0
          }
        }
      }
      JOINT ShoulderLeft
      {
        OFFSET -7.499824 -3.728782 18.334019
        CHANNELS 3 Zrotation Xrotation Yrotation
        JOINT ElbowLeft
        {
          OFFSET -15.398113 -16.513085 -18.682796
          CHANNELS 3 Zrotation Xrotation Yrotation
          JOINT WristLeft
          {
            OFFSET -24.773960 -5.175740 -8.388286
            CHANNELS 3 Zrotation Xrotation Yrotation
            JOINT HandLeft
            {
              OFFSET -0.450194 -2.947700 -4.474397
              CHANNELS 3 Zrotation Xrotation Yrotation
              JOINT HandTipLeft
              {
                OFFSET -1.622093 -2.866810 -4.466832
                CHANNELS 3 Zrotation Xrotation Yrotation
                End Site
                {
                  OFFSET 0 0 0
                }
              }
              JOINT ThumbLeft
              {
                OFFSET 0.577721 1.730356 -4.751539
                CHANNELS 3 Zrotation Xrotation Yrotation
                End Site
                {
                  OFFSET 0 0 0
                }
              }
            }
          }
        }
      }
      JOINT ShoulderRight
      {
        OFFSET 6.161697 -3.851198 -14.997008
        CHANNELS 3 Zrotation Xrotation Yrotation
        JOINT ElbowRight
        {
          OFFSET 1.469871 -21.601093 -6.702892
          CHANNELS 3 Zrotation Xrotation Yrotation
          JOINT WristRight
          {
            OFFSET -22.325267 -8.826688 7.940435
            CHANNELS 3 Zrotation Xrotation Yrotation
            JOINT HandRight
            {
              OFFSET -8.071611 -1.409479 1.920858
              CHANNELS 3 Zrotation Xrotation Yrotation
              JOINT HandTipRight
              {
                OFFSET -5.860880 -4.246419 0.545775
                CHANNELS 3 Zrotation Xrotation Yrotation
                End Site
                {
                  OFFSET 0 0 0
                }
              }
              JOINT ThumbRight
              {
                OFFSET 5.828735 -3.999900 2.253637
                CHANNELS 3 Zrotation Xrotation Yrotation
                End Site
                {
                  OFFSET 0 0 0
                }
              }
            }
          }
        }
      }
    }
  }
  JOINT HipLeft
  {
    OFFSET -3.868364 -0.639579 2.144227
    CHANNELS 3 Zrotation Xrotation Yrotation
    JOINT KneeLeft
    {
      OFFSET 3.119787 -34.326202 5.288549
      CHANNELS 3 Zrotation Xrotation Yrotation
      JOINT AnkleLeft
      {
        OFFSET 12.923825 -36.925702 4.238801
        CHANNELS 3 Zrotation Xrotation Yrotation
        JOINT FootLeft
        {
          OFFSET -4.952168 -5.525868 -1.918567
          CHANNELS 3 Zrotation Xrotation Yrotation
          End Site
          {
            OFFSET 0 0 0
          }
        }
      }
    }
  }
  JOINT HipRight
  {
    OFFSET 2.733827 1.897191 -9.552816
    CHANNELS 3 Zrotation Xrotation Yrotation
    JOINT KneeRight
    {
      OFFSET 5.724149 -32.285181 -3.804476
      CHANNELS 3 Zrotation Xrotation Yrotation
      JOINT AnkleRight
      {
        OFFSET 10.658224 -36.028899 3.470005
        CHANNELS 3 Zrotation Xrotation Yrotation
        JOINT FootRight
        {
          OFFSET -2.459409 -7.168281 -1.070418
          CHANNELS 3 Zrotation Xrotation Yrotation
          End Site
          {
            OFFSET 0 0 0
          }
        }
      }
    }
  }
}
MOTION
Frames: 12
Frame Time: 0.033333
54.495139 78.448556 358.405912 0.000000 0.000000 60.558203 -0.000000 0.000000 -60.558203 -0.000000 0.000000 0.000000 -0.000000 0.000000 0.000000 0.000000 0.000000 0.000000 -0.000000 0.000000 0.000000 -0.000000 0.000000 0.000000 -0.000000 0.000000 0.000000 -0.000000 0.000000 0.000000 0.000000 0.000000 0.000000 0.000000 0.000000 0.000000 -0.000000 0.000000 0.000000 -0.000000 0.000000 0.000000 -0.000000 0.000000 0.000000 -0.000000 0.000000 0.000000 0.000000 0.000000 0.000000 0.000000 0.000000 0.000000 -0.000000 0.000000 -60.558203 -0.000000 0.000000 0.000000 -0.000000 0.000000 0.000000 0.000000 0.000000 0.000000 -0.000000 0.000000 -60.558203 -0.000000 0.000000 0.000000 -0.000000 0.000000 0.000000 0.000000 0.000000 0.000000
54.280299 78.499602 358.682408 -0.093341 0.316269 60.210960 -0.228106 -0.238132 -60.211176 -0.000000 0.000000 0.000000 -0.000000 0.000000 0.000000 0.000000 0.000000 0.000000 -0.782538 0.615339 0.311897 1.319468 -1.443842 2.863699 4.639870 -0.228425 -11.069298 -1.647199 2.550889 0.670084 0.000000 0.000000 0.000000 0.000000 0.000000 0.000000 -0.000000 0.000000 0.000000 -0.000000 0.000000 0.000000 2.880466 0.385628 2.006182 -1.709334 1.294824 -4.156933 0.000000 0.000000 0.000000 0.000000 0.000000 0.000000 -0.228106 -0.238132 -60.211176 -0.000000 0.000000 0.000000 -0.204336 -1.270950 1.210406 0.000000 0.000000 0.000000 -0.228106 -0.238132 -60.211176 -0.000000 0.000000 0.000000 -0.137298 2.862937 -0.954557 0.000000 0.000000 0.000000
54.094060 78.549908 358.959500 -0.174910 0.606003 59.937264 -0.436867 -0.454954 -59.938074 -0.189928 0.820775 -0.003010 0.189991 -0.820761 0.005731 0.000000 0.000000 0.000000 -1.236595 0.331040 0.527489 2.479655 -2.517026 4.524000 7.043287 -0.969248 -17.567614 -2.836307 4.089276 1.013779 0.000000 0.000000 0.000000 0.000000 0.000000 0.000000 0.189991 -0.820761 0.005731 -0.000000 0.000000 0.000000 5.186980 0.727723 3.923976 -2.674360 2.133196 -7.507839 0.000000 0.000000 0.000000 0.000000 0.000000 0.000000 -0.436867 -0.454954 -59.938074 -0.000000 0.000000 0.000000 -0.280904 -2.273638 2.139603 0.000000 0.000000 0.000000 -0.436867 -0.454954 -59.938074 -0.000000 0.000000 0.000000 -0.119719 5.492657 -1.848271 0.000000 0.000000 0.000000
53.936423 78.599473 359.237187 -0.244638 0.869014 59.742028 0.159191 0.126220 -59.742588 0.006961 0.077131 -0.003487 -0.447745 -0.847870 0.424317 0.000000 0.000000 0.000000 -1.663920 0.464443 0.657889 3.464693 -3.249548 5.039261 7.899829 -1.531282 -20.391961 -3.270603 5.137336 0.673298 0.000000 0.000000 0.000000 0.000000 0.000000 0.000000 0.266614 -1.147220 0.008852 -0.553049 0.111713 -0.770795 7.475957 0.985339 6.546412 -3.030198 2.464893 -9.984003 0.000000 0.000000 0.000000 0.000000 0.000000 0.000000 -0.627370 -0.649193 -59.743727 0.221324 1.018176 0.379935 -0.488223 -4.000807 2.383730 0.000000 0.000000 0.000000 -0.627370 -0.649193 -59.743727 0.468271 0.903708 0.308612 -0.384636 6.946054 -2.996570 0.000000 0.000000 0.000000
53.807388 78.648298 359.515468 -0.302461 1.105133 59.629097 0.176556 0.146219 -59.629186 0.008804 0.085339 -0.004369 -0.719124 -1.047304 0.588543 0.000000 0.000000 0.000000 -1.962585 0.580023 0.700966 4.274136 -3.663647 4.438185 7.602472 -1.743325 -20.049754 -2.897035 5.938690 -0.454467 0.000000 0.000000 0.000000 0.000000 0.000000 0.000000 0.509603 -0.575346 0.016628 -0.919637 -0.612673 -1.238684 8.864377 1.126578 8.799632 -2.888001 2.280407 -11.553628 0.000000 0.000000 0.000000 0.000000 0.000000 0.000000 -0.800590 -0.819689 -59.631907 0.346594 1.398979 0.525392 -0.481014 -4.787911 2.561299 0.000000 0.000000 0.000000 0.018065 -0.551775 -59.494556 0.389900 0.321055 0.272830 -0.164001 8.735218 -3.846642 0.000000 0.000000 0.000000
53.706954 78.696382 359.794345 -0.348320 1.314211 59.601123 0.176040 0.154416 -59.600641 0.010471 0.084401 -0.005149 -1.052519 -1.203978 0.764593 0.000000 0.000000 0.000000 -2.132133 0.679587 0.657668 4.917966 -3.772362 2.714132 6.233264 -1.671834 -16.645114 -1.648396 6.579827 -2.479688 0.000000 0.000000 0.000000 0.000000 0.000000 0.000000 0.574816 -0.586246 0.029240 -1.123646 -0.651510 -1.819587 9.736825 1.125435 11.131078 -2.325352 1.598804 -12.221143 0.000000 0.000000 0.000000 0.000000 0.000000 0.000000 -0.957343 -0.965420 -59.605193 0.497227 1.803105 0.680572 -0.397374 -5.287560 2.417866 0.000000 0.000000 0.000000 0.017170 -0.608828 -59.432877 0.464973 0.380081 0.320205 0.207054 10.219616 -4.614164 0.000000 0.000000 0.000000
53.650090 78.738914 360.061369 -0.351581 1.551767 59.627569 0.145459 0.142902 -59.625650 0.013221 0.061044 -0.004408 -1.439540 -1.670210 0.789235 0.000000 0.000000 0.000000 -2.761206 1.131261 0.773469 7.060881 -4.460286 0.141124 4.497194 3.668066 -13.738745 -0.374648 -0.857111 -0.427171 0.000000 0.000000 0.000000 0.000000 0.000000 0.000000 0.595897 -0.620256 0.034396 -0.938617 -0.229159 -3.087946 10.833554 0.752961 18.363835 0.587535 -1.583579 -13.082110 0.000000 0.000000 0.000000 0.000000 0.000000 0.000000 -1.956937 -0.867514 -59.790903 1.294096 2.909277 1.016526 -0.310365 -5.119141 1.481419 0.000000 0.000000 0.000000 -0.005091 -0.595059 -59.414935 0.510580 0.324286 0.331144 0.759595 9.575426 -4.634521 0.000000 0.000000 0.000000
53.627301 78.817658 360.321241 -0.324228 1.759700 59.893013 0.103273 0.123366 -59.889567 0.018735 0.037173 -0.002408 -1.755125 -1.999773 0.808528 0.000000 0.000000 0.000000 -2.090091 0.814408 0.174309 7.207140 -3.817246 -3.278110 -0.653722 1.378960 -3.032531 3.135881 -0.638836 -4.922958 0.000000 0.000000 0.000000 0.000000 0.000000 0.000000 0.673419 -0.600162 0.011511 -1.180718 -0.215443 -3.616641 11.036169 0.676599 19.473889 -0.381541 -2.327389 -12.100563 0.000000 0.000000 0.000000 0.000000 0.000000 0.000000 -2.424473 -0.855752 -60.113425 1.712172 3.638343 1.261566 -0.112684 -5.035434 0.579510 0.000000 0.000000 0.000000 -0.163869 -0.557379 -59.655868 0.608849 0.410557 0.360356 1.710721 11.635611 -5.705945 0.000000 0.000000 0.000000
53.621173 78.864947 360.593679 -0.324426 1.865546 60.320682 0.046642 0.096313 -60.317123 0.018249 0.009052 -0.002847 -2.441391 -2.067791 1.055703 0.000000 0.000000 0.000000 -1.757434 0.756165 -0.137865 6.251447 -2.522990 -8.638133 -5.303942 -9.561227 14.744477 5.368336 13.767550 -11.335242 0.000000 0.000000 0.000000 0.000000 0.000000 0.000000 0.709962 -0.504525 0.010524 -2.142877 -0.289079 -4.462164 11.999459 0.903775 20.165841 0.441993 -3.653381 -9.950593 0.000000 0.000000 0.000000 0.000000 0.000000 0.000000 -2.672681 -0.699441 -60.584009 2.195015 4.097702 1.460615 0.720704 -4.621374 -0.683572 0.000000 0.000000 0.000000 -0.243662 -0.576824 -60.076218 0.628799 0.573070 0.409191 2.335116 12.389174 -6.253831 0.000000 0.000000 0.000000
53.589815 78.866576 360.933313 -0.409925 1.841229 60.601714 -0.021758 0.057606 -60.600233 0.014539 -0.023414 -0.007832 -3.189283 -1.393240 1.650889 0.000000 0.000000 0.000000 -0.855649 0.302403 -0.484251 3.846164 0.059085 -14.946856 -10.832114 -11.648730 33.017125 3.032534 5.672136 -3.803416 0.000000 0.000000 0.000000 0.000000 0.000000 0.000000 0.716674 -0.090798 0.060864 -2.865160 -0.442026 -5.441739 9.021190 -0.470980 18.276770 3.204687 -3.776986 -6.296878 0.000000 0.000000 0.000000 0.000000 0.000000 0.000000 -2.544336 -0.536239 -60.870095 2.563199 4.251579 1.595851 1.265277 -4.151109 -1.782678 0.000000 0.000000 0.000000 -0.136884 -0.686336 -60.358107 0.620639 0.873495 0.510889 2.463556 13.102368 -6.759532 0.000000 0.000000 0.000000
53.583053 78.860930 361.212692 -0.497775 1.816482 60.672234 -0.043092 0.062135 -60.673102 -0.000099 -0.022028 -0.013599 -3.988860 -1.050567 2.176408 0.000000 0.000000 0.000000 0.254181 -0.244586 -1.034546 0.015702 3.218467 -19.499884 -19.550981 -13.808262 51.759572 2.055474 -5.163210 -4.697831 0.000000 0.000000 0.000000 0.000000 0.000000 0.000000 0.994010 0.328405 0.048454 -3.876448 -0.416941 -7.046645 5.624223 -2.323764 17.779762 5.384711 -3.899171 -3.188314 0.000000 0.000000 0.000000 0.000000 0.000000 0.000000 -2.504497 -0.453486 -60.956238 2.842705 4.487607 1.719419 1.733085 -4.040488 -2.457454 0.000000 0.000000 0.000000 -0.039379 -0.808563 -60.432414 0.598884 1.194220 0.615357 1.834674 11.699292 -6.305614 0.000000 0.000000 0.000000
53.557731 78.829732 361.550268 -0.636289 1.716424 60.332375 -0.013677 0.063249 -60.335478 -0.002798 -0.008419 -0.019218 -5.070279 -0.989478 2.692250 0.000000 0.000000 0.000000 0.644203 0.352068 -1.795983 -4.226971 6.424587 -24.469244 -29.888263 -14.037112 66.733770 -8.691464 -23.399102 -6.325121 0.000000 0.000000 0.000000 0.000000 0.000000 0.000000 0.147134 0.847313 0.381807 -5.874591 -0.984932 -9.092981 1.347656 -3.890456 13.466415 5.826739 -1.411271 -0.458655 0.000000 0.000000 0.000000 0.000000 0.000000 0.000000 -2.140750 -0.422360 -60.589517 2.898013 4.363508 1.748930 2.066999 -3.831021 -2.929213 0.000000 0.000000 0.000000 0.291422 -0.872099 -60.067270 0.591652 1.362520 0.697998 5.359552 7.915271 -5.921783 0.000000 0.000000 0.000000
